<svg width="150" height="39" viewBox="0 0 150 39" fill="none" xmlns="http://www.w3.org/2000/svg">
<path d="M0.676876 24.7598C-0.0122813 22.2191 -0.175192 19.6953 0.188142 17.1894C0.550941 14.6825 1.34835 12.3725 2.58036 10.2603C3.81345 8.14708 5.43613 6.3111 7.44841 4.75342C9.46175 3.19575 11.7559 2.07722 14.3314 1.3968C16.1802 0.89627 18.0296 0.681454 19.879 0.753412C21.7294 0.824312 23.5069 1.12802 25.2122 1.66558C26.9168 2.20209 28.5218 2.96241 30.0266 3.94707C31.5314 4.93226 32.8636 6.10528 34.0244 7.46665L32.7725 12.1926H32.2838C31.4489 10.545 30.4151 8.97777 29.182 7.49205C27.9484 6.00633 26.5701 4.76294 25.0471 3.76083C23.5252 2.75765 21.866 2.05924 20.0697 1.66558C18.2745 1.27193 16.3983 1.3259 14.4407 1.82643C12.0828 2.4349 10.1418 3.52696 8.61879 5.10263C7.09686 6.67882 5.93612 8.49629 5.13764 10.5545C4.34023 12.6132 3.89544 14.8064 3.80434 17.1344C3.71431 19.4614 3.95921 21.663 4.53958 23.7397C5.33699 26.7482 6.60598 29.2545 8.34656 31.2593C10.0882 33.2646 12.0383 34.7863 14.1964 35.8244C16.3539 36.863 18.6019 37.4276 20.94 37.5175C23.2792 37.6064 25.4828 37.2212 27.5508 36.362C29.6183 35.5027 31.4226 34.1873 32.9633 32.4149C34.5051 30.6413 35.5474 28.4307 36.0908 25.782L36.5259 25.8879C35.9455 28.7889 34.7757 31.2149 33.0169 33.1662C31.2592 35.1175 29.1917 36.5683 26.8155 37.5175C24.4405 38.4657 21.9014 38.9212 19.1994 38.8847C16.4985 38.8493 13.9145 38.3043 11.4483 37.2487C8.98159 36.1921 6.778 34.6254 4.83754 32.5482C2.89815 30.4715 1.51126 27.8752 0.676876 24.7598Z" fill="#F7F1F0"/>
<path d="M59.4282 38.2964C59.5011 38.2964 59.6093 38.2519 59.754 38.163C59.8998 38.0731 60.0354 37.8847 60.1613 37.598C60.2883 37.3117 60.4062 36.8995 60.515 36.362C60.6232 35.8244 60.6779 35.1085 60.6779 34.2138C60.5691 32.4953 60.4239 30.6699 60.2428 28.7366C60.0627 26.8022 59.7996 24.9493 59.4539 23.1768C59.1093 21.4032 58.6378 19.7831 58.0392 18.3154C57.4417 16.8466 56.6534 15.7011 55.6748 14.8783C54.7316 14.09 53.7161 13.7312 52.6288 13.8032C51.5399 13.9106 50.5056 14.3937 49.5271 15.2529C49.1284 15.6117 48.7838 15.9699 48.4939 16.3281C47.8406 17.1873 47.2688 18.1545 46.779 19.2297C46.2903 20.3037 45.8819 21.4048 45.555 22.5334C45.2292 23.6609 44.9934 24.8064 44.8477 25.9704C44.703 27.1334 44.6312 28.2514 44.6312 29.3249V34.1588C44.6312 35.0551 44.6762 35.7715 44.7662 36.3091C44.8573 36.8456 44.9752 37.2657 45.1199 37.5704C45.2657 37.8752 45.4103 38.0731 45.555 38.163C45.7008 38.2519 45.8101 38.2964 45.883 38.2964V38.7789H39.5723V38.2964C39.6452 38.2964 39.7535 38.2519 39.8982 38.163C40.0439 38.0731 40.1795 37.8752 40.3054 37.5704C40.4324 37.2657 40.5503 36.8456 40.6591 36.3091C40.769 35.7715 40.8242 35.0551 40.8242 34.1588V4.62012C40.7138 3.6889 40.5316 3.08043 40.2776 2.79366C40.0246 2.50741 39.8258 2.36403 39.6817 2.36403L39.5166 1.87937L44.6312 0V24.7069C44.9211 22.8445 45.3739 21.1889 45.9902 19.7397C46.6075 18.2895 47.3331 17.0805 48.168 16.1122C49.0008 14.9667 49.9885 14.099 51.1305 13.509C52.2735 12.918 53.5704 12.7122 55.021 12.891C56.9074 13.1778 58.4036 13.8852 59.5097 15.0138C60.6157 16.1413 61.4764 17.5106 62.0927 19.1217C62.4914 20.1604 62.8263 21.3418 63.098 22.6667C63.3708 23.9916 63.598 25.3794 63.7796 26.8297C63.9608 28.2789 64.106 29.7472 64.2148 31.2339C64.323 32.7196 64.4141 34.1429 64.487 35.5027C64.6682 36.6837 64.8772 37.4451 65.1129 37.7863C65.3487 38.1265 65.5384 38.2964 65.6831 38.2964V38.7789H59.4282V38.2964Z" fill="#F7F1F0"/>
<path d="M68.8926 28.9503C68.421 27.1953 68.3116 25.4583 68.5646 23.7397C68.8186 22.0212 69.3716 20.4371 70.2237 18.9863C71.0768 17.536 72.192 16.2741 73.5698 15.2C74.9487 14.1265 76.5263 13.3566 78.3028 12.891C80.0804 12.4254 81.8397 12.3185 83.5803 12.5693C85.3209 12.8191 86.9339 13.3651 88.4205 14.2074C89.9081 15.0487 91.1953 16.1498 92.2832 17.5112C93.3721 18.8715 94.1524 20.4286 94.6239 22.1821C95.0955 23.9376 95.2038 25.6741 94.9498 27.3927C94.6952 29.1112 94.1422 30.6958 93.2906 32.1461C92.4386 33.5969 91.3234 34.8588 89.9445 35.9324C88.5668 37.0064 86.9891 37.7757 85.2115 38.2414C83.4351 38.707 81.6757 38.8149 79.9341 38.5652C78.1935 38.3144 76.5794 37.7683 75.0918 36.9271C73.6052 36.0847 72.3185 34.9837 71.2312 33.6234C70.1433 32.262 69.3641 30.7043 68.8926 28.9503ZM90.9241 23.1493C90.5608 21.8598 89.9987 20.544 89.2372 19.2022C88.4751 17.8593 87.5507 16.6773 86.4634 15.6572C85.3755 14.636 84.1424 13.8836 82.7636 13.4011C81.3858 12.9175 79.9351 12.872 78.4121 13.2656C76.8886 13.6609 75.6646 14.4043 74.7402 15.4963C73.8153 16.5884 73.1352 17.8424 72.6995 19.2572C72.2649 20.6709 72.0479 22.1567 72.0479 23.7143C72.0479 25.271 72.229 26.6937 72.5924 27.9831C72.9535 29.2731 73.5152 30.598 74.2772 31.9577C75.0387 33.3181 75.9631 34.4995 77.051 35.5027C78.1399 36.5059 79.373 37.2583 80.7508 37.7588C82.1296 38.2599 83.5803 38.2959 85.1022 37.8668C86.6252 37.472 87.8588 36.7281 88.802 35.6361C89.7452 34.544 90.4338 33.2911 90.8684 31.8773C91.3041 30.4625 91.5126 28.9768 91.4943 27.4202C91.4772 25.8625 91.2869 24.4392 90.9241 23.1493Z" fill="#F7F1F0"/>
<path d="M121.061 20.5165C120.517 19.2636 119.782 18.1096 118.858 17.0541C117.933 15.9974 116.899 15.1382 115.756 14.4763C114.614 13.8133 113.363 13.3837 112.002 13.1874C110.643 12.99 109.257 13.1239 107.842 13.5895C106.318 13.9832 105.094 14.726 104.17 15.8181C103.245 16.9101 102.565 18.1641 102.129 19.5789C101.695 20.9927 101.486 22.4694 101.503 24.0086C101.522 25.5483 101.695 26.98 102.022 28.3049L102.185 28.7895C102.837 30.9372 103.733 32.6731 104.875 33.998C106.018 35.3229 107.279 36.2996 108.656 36.9271C110.035 37.5536 111.45 37.8668 112.901 37.8668C114.351 37.8668 115.711 37.6075 116.98 37.088C118.25 36.5689 119.338 35.8261 120.245 34.8594C121.152 33.8917 121.75 32.7636 122.041 31.4753H122.42C122.094 33.0869 121.36 34.4562 120.217 35.5832C119.075 36.7107 117.705 37.5615 116.11 38.1356C114.515 38.7086 112.801 38.9853 110.969 38.9673C109.139 38.9488 107.388 38.5821 105.72 37.8668C104.052 37.1504 102.547 36.0943 101.205 34.6985C99.8635 33.3017 98.9021 31.4932 98.3222 29.2721C97.8507 27.5186 97.7413 25.7821 97.9943 24.0636C98.2483 22.344 98.8013 20.7594 99.6534 19.3101C100.507 17.8599 101.631 16.598 103.027 15.5239C104.423 14.4488 106.01 13.6784 107.788 13.2128C109.456 12.7842 111.079 12.6324 112.656 12.7578C114.234 12.8821 115.675 13.1324 116.98 13.5091C118.286 13.8847 119.392 14.2964 120.298 14.7451C121.205 15.1927 121.804 15.5048 122.094 15.6826H122.313L121.55 20.6244L121.061 20.5165Z" fill="#F7F1F0"/>
<path d="M150 38.779H144.995V23.3101C144.995 22.344 144.95 21.2699 144.86 20.089C144.77 18.907 144.543 17.7964 144.18 16.7577C143.817 15.7196 143.263 14.8509 142.519 14.1524C141.776 13.454 140.752 13.1048 139.447 13.1048C138.141 13.1048 137.007 13.2932 136.045 13.6699C135.085 14.0456 134.314 14.4842 133.735 14.9863C133.154 15.4874 132.773 15.9884 132.592 16.489C132.41 16.99 132.447 17.3837 132.701 17.6699C132.847 17.8493 133.092 17.9842 133.437 18.0742C133.781 18.163 134.17 18.2435 134.605 18.3154C135.041 18.3874 135.503 18.4593 135.992 18.5313C136.482 18.6022 136.945 18.7271 137.381 18.9059C138.577 19.3715 139.529 20.1154 140.236 21.1366C140.943 22.1567 141.442 23.2932 141.732 24.5461C142.022 25.799 142.131 27.0879 142.058 28.4128C141.985 29.7377 141.731 30.9017 141.297 31.9049C140.462 33.9821 139.229 35.7006 137.597 37.0604C135.965 38.4208 134.188 39.0652 132.266 38.9948C130.453 38.9229 128.983 38.4308 127.859 37.5176C126.736 36.6033 125.965 35.4752 125.548 34.1334C125.131 32.7906 125.085 31.3398 125.411 29.7821C125.738 28.2244 126.436 26.7747 127.505 25.4329C128.576 24.09 130.044 22.9525 131.913 22.0213C133.78 21.09 136.056 20.571 138.74 20.4636C138.813 20.4287 138.94 20.4107 139.121 20.4107C138.577 19.9451 137.941 19.5694 137.216 19.2826C136.564 19.0318 135.857 18.871 135.096 18.8001C134.334 18.7281 133.617 18.7101 132.946 18.7451C132.275 18.7805 131.677 18.8339 131.152 18.9059C130.625 18.9779 130.29 19.0318 130.144 19.0667C130.035 18.5308 130.19 17.8958 130.607 17.162C131.024 16.4271 131.641 15.7286 132.457 15.0667C133.273 14.4038 134.269 13.8487 135.447 13.4011C136.626 12.954 137.96 12.7302 139.447 12.7302C141.188 12.7302 142.656 12.999 143.852 13.5366C145.049 14.0731 146.011 14.8064 146.735 15.7376C147.461 16.6689 147.979 17.7879 148.287 19.0943C148.596 20.4011 148.75 21.8064 148.75 23.3101V34.1588C148.75 35.0551 148.795 35.7715 148.885 36.3091C148.975 36.8456 149.092 37.2657 149.237 37.5705C149.383 37.8753 149.527 38.0731 149.672 38.1631C149.818 38.252 149.927 38.2964 150 38.2964V38.779ZM139.501 20.8403C138.05 20.8403 136.681 21.0197 135.394 21.3779C134.106 21.735 132.981 22.2895 132.02 23.0414C131.059 23.7937 130.298 24.7424 129.737 25.8879C129.175 27.034 128.894 28.3768 128.894 29.9176C128.894 30.6699 128.976 31.4218 129.139 32.1737C129.302 32.9244 129.573 33.6223 129.953 34.2668C130.335 34.9118 130.816 35.4668 131.396 35.9324C131.976 36.398 132.683 36.7022 133.518 36.8446C134.388 37.0239 135.204 36.9885 135.966 36.7387C136.728 36.4879 137.434 36.1208 138.086 35.6382C138.739 35.1546 139.31 34.5726 139.799 33.8922C140.289 33.2107 140.679 32.5123 140.969 31.7969C141.296 30.9377 141.523 30.016 141.649 29.0308C141.776 28.0461 141.785 27.0615 141.677 26.0763C141.568 25.0916 141.332 24.1519 140.969 23.2572C140.607 22.3615 140.118 21.5556 139.501 20.8403Z" fill="#F7F1F0"/>
</svg>
