<svg width="24" height="24" viewBox="0 0 24 24" fill="none" xmlns="http://www.w3.org/2000/svg">
<path fill-rule="evenodd" clip-rule="evenodd" d="M6.28607 2C5.14962 2 4.05969 2.45134 3.25594 3.25478C2.4522 4.05822 2.00044 5.14797 2 6.28442V17.7139C2 18.8507 2.45157 19.9408 3.25536 20.7446C4.05915 21.5484 5.14933 22 6.28607 22H17.7156C18.852 21.9996 19.9418 21.5478 20.7452 20.7441C21.5487 19.9403 22 18.8504 22 17.7139V6.28442C21.9996 5.14826 21.548 4.05875 20.7446 3.25536C19.9412 2.45197 18.8517 2.00044 17.7156 2H6.28607ZM18.9484 6.29101C18.9484 6.61841 18.8183 6.9324 18.5868 7.1639C18.3553 7.39541 18.0413 7.52547 17.7139 7.52547C17.3865 7.52547 17.0725 7.39541 16.841 7.1639C16.6095 6.9324 16.4795 6.61841 16.4795 6.29101C16.4795 5.9636 16.6095 5.64961 16.841 5.41811C17.0725 5.1866 17.3865 5.05654 17.7139 5.05654C18.0413 5.05654 18.3553 5.1866 18.5868 5.41811C18.8183 5.64961 18.9484 5.9636 18.9484 6.29101ZM12.0025 8.57559C11.0945 8.57559 10.2237 8.93629 9.58163 9.57834C8.93958 10.2204 8.57888 11.0912 8.57888 11.9992C8.57888 12.9072 8.93958 13.778 9.58163 14.42C10.2237 15.0621 11.0945 15.4228 12.0025 15.4228C12.9105 15.4228 13.7813 15.0621 14.4233 14.42C15.0654 13.778 15.4261 12.9072 15.4261 11.9992C15.4261 11.0912 15.0654 10.2204 14.4233 9.57834C13.7813 8.93629 12.9105 8.57559 12.0025 8.57559ZM6.93128 11.9992C6.93128 10.6547 7.46539 9.36519 8.41612 8.41447C9.36684 7.46375 10.6563 6.92964 12.0008 6.92964C13.3453 6.92964 14.6348 7.46375 15.5855 8.41447C16.5363 9.36519 17.0704 10.6547 17.0704 11.9992C17.0704 13.3437 16.5363 14.6332 15.5855 15.5839C14.6348 16.5346 13.3453 17.0687 12.0008 17.0687C10.6563 17.0687 9.36684 16.5346 8.41612 15.5839C7.46539 14.6332 6.93128 13.3437 6.93128 11.9992Z" fill="#E5D7D3"/>
</svg>
