<svg width="215" height="215" viewBox="0 0 215 215" fill="none" xmlns="http://www.w3.org/2000/svg">
<circle cx="107.341" cy="107.341" r="107.341" fill="#5A3131"/>
<path d="M47.8646 111.289C47.8008 106.56 60.6098 73.4954 67.0223 57.5539C70.6705 43.9477 79.4754 48.9552 83.4218 53.1597C83.4218 53.1597 106.367 71.7906 125.74 90.4218C145.113 109.053 131.252 126.895 122.224 132.024C107.337 138.788 74.1406 150.419 60.4533 142.836C43.3442 133.356 47.9443 117.199 47.8646 111.289Z" fill="#F7F1F0"/>
<path d="M91.4051 113.459C93.7139 109.333 121.339 87.102 134.863 76.5026C144.826 66.5434 149.948 75.2824 151.263 80.8968C151.263 80.8968 161.818 108.504 169.281 134.326C176.743 160.148 155.818 168.668 145.435 168.597C129.16 167.011 94.5955 160.485 86.5337 147.074C76.4565 130.31 88.519 118.618 91.4051 113.459Z" fill="#F7F1F0" stroke="#5A3131" stroke-width="2"/>
</svg>
