<svg width="215" height="216" viewBox="0 0 215 216" fill="none" xmlns="http://www.w3.org/2000/svg">
<circle cx="107.341" cy="108.049" r="107.341" fill="#5A3131"/>
<path d="M96.6321 41.8561C94.2184 41.8722 91.8358 42.201 89.5231 42.8636C87.2287 43.5217 85.115 44.4756 83.1967 45.6905C85.2925 50.7948 90.6427 57.2742 96.8402 62.8054C103.311 68.5809 110.731 73.4878 115.522 75.7008L115.579 75.7268L115.634 75.7536C120.037 77.9218 123.154 81.3342 124.954 85.0986C126.113 87.5226 126.788 90.0615 127.181 92.6425C130.709 90.0048 134.429 87.8925 138.21 86.3595C137.922 81.5965 136.829 76.6019 134.838 71.6008C130.662 61.1122 123.368 52.6683 115.108 47.5187C109.171 43.8175 102.8 41.815 96.6321 41.8561ZM75.8945 52.861C74.5068 54.9249 73.3688 57.2261 72.5041 59.7252C69.6164 68.0687 69.8506 78.5349 74.0267 89.024C76.554 95.3721 80.2248 100.969 84.5599 105.543C88.8308 106.767 93.0549 108.659 97.0229 111.227C100.089 113.211 102.821 115.482 105.188 117.952C105.961 118.132 106.734 118.285 107.506 118.406C108.977 114.728 110.886 111.069 113.239 107.52C114.663 105.37 116.222 103.306 117.91 101.34C117.93 99.9889 117.918 98.6802 117.851 97.4308C117.669 94.0517 117.105 91.1616 116.071 88.9988C115.037 86.8361 113.69 85.3252 111.169 84.0839L111.28 84.1364C105.071 81.2684 97.3174 76.0275 90.1813 69.6587C84.5089 64.5965 79.2469 58.9263 75.8945 52.861ZM151.821 88.1677C148.155 88.1963 144.277 89.0123 140.353 90.5734C131.983 93.9036 123.579 100.654 117.363 110.031C114.182 114.828 111.897 119.83 110.476 124.734C116.054 133.703 117.424 144.005 113.406 152.657C114.055 153.547 114.78 154.383 115.573 155.158C121.447 150.3 128.217 146.276 133.029 142.144C135.659 139.886 137.65 137.65 138.757 135.521C139.863 133.391 140.244 131.438 139.669 128.778L139.635 128.623L139.613 128.467C137.427 113.303 141.261 104.391 146.849 98.939C151.343 94.5558 155.816 92.2471 158.901 89.1991C156.672 88.489 154.295 88.1482 151.821 88.1677ZM167.222 94.3987C162.708 99.7756 157.144 102.259 153.819 105.503C149.999 109.23 147.362 113.716 149.283 127.121C150.207 131.678 149.395 136.055 147.503 139.696C145.576 143.402 142.696 146.416 139.549 149.119C134.769 153.224 129.255 156.74 124.642 160.169C129.873 161.472 135.829 160.841 141.894 158.428C150.264 155.099 158.669 148.348 164.885 138.971C171.101 129.594 173.906 119.433 173.496 110.756C173.182 104.12 171.044 98.4341 167.222 94.3989L167.222 94.3987ZM149.283 127.121C149.266 127.039 149.253 126.958 149.235 126.876L149.292 127.186C149.289 127.164 149.286 127.143 149.283 127.121H149.283ZM73.2285 108.541C68.2392 108.498 63.5393 109.547 59.5836 111.612C59.6107 111.613 59.6343 111.615 59.6615 111.616C62.0037 111.695 64.9441 111.43 68.3296 111.873C71.7149 112.317 75.6806 113.79 78.6848 117.048C81.6893 120.306 83.7493 124.925 85.1842 131.559L85.2181 131.713L85.2404 131.87C85.9061 136.498 88.9819 139.175 94.3145 141.682C98.8644 143.821 104.706 145.349 110.251 146.904C112.734 136.239 106.842 123.23 94.2893 115.108C87.521 110.728 80.1018 108.601 73.229 108.541H73.2285ZM51.2235 119.323C44.3651 130.646 49.8654 147.263 64.8225 156.941C79.5395 166.465 97.3331 165.337 105.897 155.459C100.893 154.092 95.221 152.54 90.0117 150.091C83.2944 146.933 76.8919 141.626 75.6 133.385C74.3698 127.74 72.7258 124.727 71.3634 123.25C69.9955 121.765 68.9289 121.404 67.0073 121.153C65.0858 120.901 62.445 121.081 59.3176 120.975C56.8804 120.893 54.0209 120.558 51.2235 119.323V119.323ZM75.6003 133.384C75.6063 133.41 75.6122 133.434 75.6179 133.461L75.5618 133.149C75.5732 133.229 75.5881 133.306 75.6006 133.385L75.6003 133.384Z" fill="#F7F1F0"/>
</svg>
