<svg width="215" height="215" viewBox="0 0 215 215" fill="none" xmlns="http://www.w3.org/2000/svg">
<circle cx="107.341" cy="107.341" r="107.341" fill="#5A3131"/>
<path d="M111.551 59.0376C100.763 59.0376 91.4485 65.343 86.7672 74.5403C82.086 65.343 72.771 59.0376 61.9836 59.0376C46.5202 59.0376 33.9912 71.9802 33.9912 87.9097C33.9912 103.839 43.5806 118.441 55.9724 130.435C68.3642 142.43 86.7672 153.856 86.7672 153.856C86.7672 153.856 104.574 142.62 117.562 130.435C131.416 117.445 139.543 103.886 139.543 87.9097C139.543 71.9328 127.014 59.0376 111.551 59.0376Z" fill="#F7F1F0"/>
<path d="M130.602 100.04L131.493 101.791L132.384 100.04C136.908 91.1512 145.894 85.0839 156.276 85.0839C171.159 85.0839 183.269 97.5026 183.269 112.956C183.269 128.546 175.353 141.86 161.604 154.752L161.603 154.752C155.156 160.8 147.499 166.626 141.439 170.947C138.412 173.105 135.79 174.884 133.925 176.123C132.992 176.742 132.25 177.226 131.741 177.555C131.649 177.615 131.565 177.669 131.489 177.718C131.406 177.666 131.315 177.608 131.215 177.544C130.691 177.21 129.928 176.72 128.972 176.093C127.061 174.84 124.384 173.043 121.32 170.874C115.186 166.529 107.535 160.708 101.393 154.763C89.075 142.84 79.7168 128.483 79.7168 112.956C79.7168 97.5489 91.8275 85.0839 106.709 85.0839C117.091 85.0839 126.077 91.1512 130.602 100.04Z" fill="#F7F1F0" stroke="#5A3131" stroke-width="2"/>
</svg>
